<svg width="300" height="300" viewBox="0 0 300 300" fill="none" xmlns="http://www.w3.org/2000/svg">
<mask id="path-1-inside-1_1_86" fill="white">
<path d="M30 240C30 247.956 33.161 255.587 38.7871 261.213C44.4132 266.839 52.0435 270 60 270C67.9565 270 75.5868 266.839 81.2129 261.213C86.6631 255.763 89.8005 248.432 89.9912 240.745L90 240V30H60V0H170V0.200195L243.486 270H270V0H300V300H220.582L220.581 299.997L220.565 300.002L147.023 30H120V240C120 255.913 113.679 271.175 102.427 282.427C91.1746 293.679 75.913 300 60 300C44.087 300 28.8254 293.679 17.5732 282.427C6.32106 271.175 -2.01001e-09 255.913 0 240H30Z"/>
</mask>
<path d="M30 240L35 240L35 235H30V240ZM38.7871 261.213L35.2516 264.748L35.2516 264.748L38.7871 261.213ZM60 270L60 275H60L60 270ZM81.2129 261.213L84.7484 264.748L84.7484 264.748L81.2129 261.213ZM89.9912 240.745L94.9897 240.869L94.9905 240.837L94.9909 240.804L89.9912 240.745ZM90 240L94.9997 240.059L95 240.029V240H90ZM90 30H95V25H90V30ZM60 30H55V35H60V30ZM60 0V-5H55V0H60ZM170 0H175V-5H170V0ZM170 0.200195H165V0.868948L165.176 1.51419L170 0.200195ZM243.486 270L238.662 271.314L239.666 275H243.486V270ZM270 270V275H275V270H270ZM270 0V-5H265V0H270ZM300 0H305V-5H300V0ZM300 300V305H305V300H300ZM220.582 300L215.839 301.581L216.978 305H220.582V300ZM220.581 299.997L225.324 298.416L223.773 293.761L219.09 295.225L220.581 299.997ZM220.565 300.002L215.741 301.316L217.105 306.322L222.057 304.774L220.565 300.002ZM147.023 30L151.848 28.686L150.844 25H147.023V30ZM120 30V25H115V30H120ZM120 240L125 240V240H120ZM102.427 282.427L105.962 285.962L105.962 285.962L102.427 282.427ZM60 300L60 305H60L60 300ZM17.5732 282.427L14.0377 285.962L14.0377 285.962L17.5732 282.427ZM0 240V235H-5L-5 240L0 240ZM30 240L25 240C25 249.283 28.6879 258.185 35.2516 264.748L38.7871 261.213L42.3226 257.677C37.6341 252.989 35 246.63 35 240L30 240ZM38.7871 261.213L35.2516 264.748C41.8152 271.312 50.7172 275 60 275L60 270L60 265C53.3698 265 47.0112 262.366 42.3226 257.677L38.7871 261.213ZM60 270L60 275C69.2828 275 78.1848 271.312 84.7484 264.748L81.2129 261.213L77.6774 257.677C72.9888 262.366 66.6302 265 60 265L60 270ZM81.2129 261.213L84.7484 264.748C91.1068 258.39 94.7671 249.837 94.9897 240.869L89.9912 240.745L84.9928 240.621C84.8338 247.026 82.2195 253.135 77.6774 257.677L81.2129 261.213ZM89.9912 240.745L94.9909 240.804L94.9997 240.059L90 240L85.0003 239.941L84.9916 240.686L89.9912 240.745ZM90 240H95V30H90H85V240H90ZM90 30V25H60V30V35H90V30ZM60 30H65V0H60H55V30H60ZM60 0V5H170V0V-5H60V0ZM170 0H165V0.200195H170H175V0H170ZM170 0.200195L165.176 1.51419L238.662 271.314L243.486 270L248.311 268.686L174.824 -1.1138L170 0.200195ZM243.486 270V275H270V270V265H243.486V270ZM270 270H275V0H270H265V270H270ZM270 0V5H300V0V-5H270V0ZM300 0H295V300H300H305V0H300ZM300 300V295H220.582V300V305H300V300ZM220.582 300L225.325 298.419L225.324 298.416L220.581 299.997L215.838 301.578L215.839 301.581L220.582 300ZM220.581 299.997L219.09 295.225L219.074 295.23L220.565 300.002L222.057 304.774L222.072 304.769L220.581 299.997ZM220.565 300.002L225.39 298.688L151.848 28.686L147.023 30L142.199 31.314L215.741 301.316L220.565 300.002ZM147.023 30V25H120V30V35H147.023V30ZM120 30H115V240H120H125V30H120ZM120 240L115 240C115 254.587 109.206 268.577 98.8912 278.891L102.427 282.427L105.962 285.962C118.152 273.772 125 257.239 125 240L120 240ZM102.427 282.427L98.8912 278.891C88.5768 289.206 74.587 295 60 295L60 300L60 305C77.239 305 93.7724 298.152 105.962 285.962L102.427 282.427ZM60 300L60 295C45.413 295 31.4232 289.206 21.1088 278.891L17.5732 282.427L14.0377 285.962C26.2276 298.152 42.761 305 60 305L60 300ZM17.5732 282.427L21.1088 278.891C10.7944 268.577 5 254.587 5 240L0 240L-5 240C-5 257.239 1.84777 273.772 14.0377 285.962L17.5732 282.427ZM0 240V245H30V240V235H0V240Z" fill="url(#paint0_linear_1_86)" mask="url(#path-1-inside-1_1_86)"/>
<defs>
<linearGradient id="paint0_linear_1_86" x1="0" y1="150" x2="300" y2="150" gradientUnits="userSpaceOnUse">
<stop stop-color="#42D392"/>
<stop offset="1" stop-color="#647EFF"/>
</linearGradient>
</defs>
</svg>
